<svg width="242.52000732421874" height="66.90680066779018" viewBox="0 0 389.89473684210526 107.56477260220733" class="css-1j8o68f"><defs id="SvgjsDefs1566"></defs><g id="SvgjsG1567" featurekey="v37d4h-0" transform="matrix(0.9934499805778396,0,0,0.9934499805778396,16.324762978593768,15.339819004185847)" fill="#fc4c69"><g xmlns="http://www.w3.org/2000/svg"><g><path fill="#fc4c69" d="M24.181,92.833c-2.133,0-4.275-0.336-6.362-1.018C7.095,88.32,1.213,76.75,4.708,66.024l7.417-22.754    l3.399,1.108L8.106,67.133c-2.883,8.853,1.97,18.398,10.82,21.284c4.289,1.396,8.864,1.042,12.884-1.001    c4.02-2.044,7.004-5.53,8.401-9.818l7.152-21.937l3.399,1.108l-7.151,21.937c-1.695,5.196-5.31,9.419-10.182,11.894    C30.518,92.084,27.36,92.833,24.181,92.833z"></path></g><g><path fill="#fc4c69" d="M50.13,54.735c-0.183,0-0.372-0.03-0.558-0.09c-0.936-0.306-1.451-1.313-1.142-2.253l7.174-22.009    c2.883-8.851-1.974-18.399-10.823-21.283c-8.852-2.886-18.397,1.969-21.286,10.819l-7.27,22.308    c-0.308,0.937-1.313,1.453-2.253,1.145c-0.941-0.306-1.452-1.316-1.146-2.254l7.271-22.307C23.592,8.085,35.164,2.204,45.89,5.7    c10.724,3.496,16.605,15.066,13.112,25.792l-7.174,22.009C51.582,54.254,50.881,54.735,50.13,54.735z"></path></g><g><path fill="#fc4c69" d="M49.604,56.332c-0.183,0-0.369-0.027-0.555-0.09L13.548,44.671c-0.939-0.306-1.451-1.315-1.145-2.253    c0.306-0.938,1.317-1.449,2.252-1.146l35.502,11.573c0.94,0.306,1.452,1.313,1.145,2.252    C51.06,55.853,50.358,56.332,49.604,56.332z"></path></g><g><path fill="#fc4c69" d="M19.087,85.869c-0.262,0-0.527-0.058-0.779-0.179c-10.473-5.078-9.691-14.533-7.788-18.908l5.821-17.856    c0.305-0.938,1.312-1.456,2.254-1.146c0.938,0.306,1.452,1.314,1.145,2.254l-5.914,18.113c-0.167,0.379-3.989,9.464,6.041,14.329    c0.889,0.429,1.259,1.498,0.829,2.387C20.389,85.499,19.75,85.869,19.087,85.869z"></path></g><g><path fill="#fc4c69" d="M65.217,73.814c-5.521,0-10.925-0.469-15.634-1.355c-0.968-0.184-1.605-1.119-1.422-2.088    c0.182-0.973,1.115-1.605,2.087-1.427c4.491,0.847,9.666,1.294,14.969,1.294c0.004,0,0.004,0,0.007,0    c16.854,0,27.61-4.312,27.61-7.28c0-2.97-10.757-7.282-27.61-7.282c-3.708,0.002-7.319,0.214-10.731,0.638    c-0.979,0.12-1.873-0.575-1.995-1.556c-0.121-0.979,0.576-1.871,1.556-1.993c3.555-0.441,7.316-0.663,11.171-0.663    c15.498,0,31.187,3.729,31.187,10.856S80.722,73.814,65.224,73.814C65.221,73.814,65.221,73.814,65.217,73.814z"></path></g><g><path fill="#fc4c69" d="M65.224,88.086c-6.812,0-15.927-0.904-20.939-2.925c-0.912-0.368-1.355-1.413-0.987-2.326    c0.368-0.917,1.407-1.36,2.328-0.989c4.537,1.831,13.345,2.666,19.599,2.666c16.854,0,27.61-4.312,27.61-7.282V64.397    c0-0.989,0.801-1.788,1.788-1.788c0.986,0,1.788,0.799,1.788,1.788v12.832C96.41,84.356,80.722,88.086,65.224,88.086z"></path></g><g><path fill="#fc4c69" d="M56.534,69.126c-0.679,0-1.326-0.386-1.627-1.044c-0.411-0.897-0.021-1.958,0.88-2.371l18.659-8.567    c0.904-0.411,1.96-0.021,2.371,0.876s0.021,1.96-0.876,2.373l-18.663,8.569C57.035,69.072,56.785,69.126,56.534,69.126z"></path></g></g></g><g id="SvgjsG1568" featurekey="UxBHKT-0" transform="matrix(2.9312886079777063,0,0,2.9312886079777063,127.89619706702908,27.457446966602355)" fill="#65605f"><path d="M17.79 10.04 q1.13 1.24 1.13 3.46 l0 6.5 l-3.02 0 l0 -6.5 q0 -1.18 -0.59 -1.7 t-1.55 -0.52 q-0.8 0 -1.44 0.6 t-0.66 2 l0 6.12 l-3.02 0 l0 -6.5 q0 -1.18 -0.59 -1.7 t-1.53 -0.52 q-0.86 0 -1.49 0.64 t-0.63 2.26 l-0.02 5.82 l-2.98 0 l0 -11 l2.98 0 l0 1 q0.58 -0.52 1.4 -0.86 t1.5 -0.34 q2.32 0 3.54 1.5 q0.62 -0.7 1.54 -1.1 t2 -0.4 q2.3 0 3.43 1.24 z M24.830000000000002 19.74 q-1.37 -0.54 -2.35 -1.83 t-0.98 -3.37 t0.99 -3.36 t2.37 -1.82 t2.62 -0.54 q1.44 0 2.74 0.64 t2.13 1.88 t0.87 2.94 q0 0.52 -0.02 0.9 t-0.04 0.48 l-8.68 0 q0.24 1.16 1.2 1.58 t1.8 0.42 q1.08 0 1.72 -0.39 t1.1 -0.89 l2.32 1.34 q-1.88 2.56 -5.14 2.56 q-1.28 0 -2.65 -0.54 z M25.44 12.05 q-0.78 0.61 -0.88 1.49 l5.5 0 q-0.06 -0.52 -0.4 -1 t-0.91 -0.79 t-1.29 -0.31 q-1.24 0 -2.02 0.61 z M43.980000000000004 18.9 q-0.38 0.52 -1.31 0.93 t-2.03 0.41 q-1.7 0 -2.95 -0.76 t-1.91 -2.07 t-0.66 -2.91 t0.66 -2.91 t1.91 -2.07 t2.95 -0.76 q1.14 0 2.01 0.39 t1.33 0.99 l0 -5.26 l2.96 0 l0 15.12 l-2.96 0 l0 -1.1 z M43.28 12.25 q-0.82 -0.87 -2.2 -0.87 q-1.4 0 -2.21 0.87 t-0.81 2.25 q0 1.34 0.83 2.22 t2.19 0.88 q1.4 0 2.21 -0.83 t0.81 -2.27 q0 -1.38 -0.82 -2.25 z M52.7 7.369999999999999 q-0.48 0.47 -1.16 0.47 q-0.7 0 -1.19 -0.47 t-0.49 -1.15 q0 -0.66 0.49 -1.13 t1.19 -0.47 q0.68 0 1.16 0.47 t0.48 1.13 q0 0.68 -0.48 1.15 z M50.040000000000006 9.02 l3 0 l0 10.98 l-3 0 l0 -10.98 z M58.480000000000004 19.51 q-1.38 -0.77 -2.19 -2.09 t-0.81 -2.88 t0.81 -2.87 t2.18 -2.08 t2.99 -0.77 q1.74 0 3.15 0.83 t2.25 2.37 l-2.7 1.06 q-0.48 -0.82 -1.18 -1.23 t-1.52 -0.41 q-1.3 0 -2.15 0.88 t-0.85 2.22 t0.86 2.22 t2.16 0.88 q1.8 0 2.78 -1.6 l2.54 1 q-1.58 3.24 -5.32 3.24 q-1.62 0 -3 -0.77 z M71.25 19.49 q-1.37 -0.77 -2.17 -2.09 t-0.8 -2.88 q0 -1.54 0.8 -2.86 t2.17 -2.09 t2.99 -0.77 t3 0.77 t2.19 2.09 t0.81 2.86 q0 1.56 -0.81 2.88 t-2.19 2.09 t-3 0.77 t-2.99 -0.77 z M72.72 11.83 q-0.7 0.41 -1.1 1.12 t-0.4 1.57 q0 0.9 0.39 1.61 t1.08 1.12 t1.55 0.41 q0.84 0 1.53 -0.41 t1.09 -1.13 t0.4 -1.6 q0 -0.86 -0.4 -1.57 t-1.09 -1.12 t-1.53 -0.41 q-0.82 0 -1.52 0.41 z M87.92 11.87 q-0.86 0.21 -1.58 0.99 t-0.72 2.28 l0 4.86 l-2.98 0 l0 -11 l2.98 0 l0 1.46 q0.74 -0.98 1.81 -1.33 t1.95 -0.33 l0 2.92 q-0.6 -0.06 -1.46 0.15 z"></path></g></svg>